#N canvas 263 0 816 676 10;
#X obj 64 23 receive fromGUI;
#X obj 64 46 list trim;
#X obj 64 110 route touchesByTime;
#X obj 149 158 send multitouch;
#X obj 149 135 list prepend 0;
#X obj 64 158 list length;
#X obj 64 134 t l l;
#X obj 174 42 table multitouch 30;
#X obj 64 86 route /myMultiTouch;
#X text 174 0 holds the current "touchesByTime" array \,;
#X text 174 24 triplets of: voice # \, X \, Y;
#X obj 64 188 / 3;
#X text 97 185 compute # of touches;
#X obj 403 183 *~;
#X obj 125 274 s~ vol;
#X obj 414 106 r~ vol;
#N canvas 112 107 450 250 (subpatch) 0;
#X array wave-out 64 float 0;
#X coords 0 1 63 0 200 140 1 0 0;
#X restore 102 333 graph;
#X obj 65 235 s xTouch;
#X obj 94 254 s yTouch;
#X obj 509 49 r xTouch;
#X obj 528 67 r yTouch;
#X obj 592 548 dac~, f 5;
#X text 590 83 process touches and tilt;
#N canvas 164 86 675 678 touchSeq 0;
#X obj 202 175 metro 100;
#X obj 144 121 tgl 15 0 empty empty empty 17 7 0 10 -262144 -1 -1 0
1;
#X obj 204 213 int;
#X obj 251 214 + 1;
#X obj 204 83 t f f;
#X obj 296 215 % 1;
#X obj 204 125 > 0;
#X floatatom 204 245 5 0 0 0 - - -;
#X obj 204 149 change;
#X text 252 244 iterate through touch index;
#X obj 205 270 * 3;
#X obj 206 318 + 1;
#X obj 206 339 tabread multitouch;
#X obj 206 294 t f f;
#X obj 326 335 tabread multitouch;
#X obj 326 304 + 2;
#X text 238 317 read X;
#X text 360 317 read Y;
#X obj 206 381 t b;
#X obj 244 506 line~;
#X text 257 491 final volume;
#X obj 117 164 s noTouch;
#X obj 292 396 r noTouch;
#X obj 206 62 inlet;
#X text 280 720 dont shrink;
#X obj 157 356 outlet;
#X obj 372 369 outlet;
#X obj 264 539 outlet~;
#X obj 377 95 r xTilt2Graph;
#X floatatom 436 126 5 0 0 0 - - -;
#X obj 377 128 + 1;
#X obj 378 157 / 2;
#X obj 378 183 * 400;
#X obj 279 127 == 1;
#X obj 279 148 change;
#X obj 329 150 tgl 15 0 empty empty empty 17 7 0 10 -262144 -1 -1 0
1;
#X obj 146 189 metro 1;
#X msg 287 458 0 2100;
#X msg 204 401 0.2 150;
#X connect 0 0 2 0;
#X connect 1 0 0 0;
#X connect 1 0 21 0;
#X connect 2 0 3 0;
#X connect 2 0 7 0;
#X connect 3 0 5 0;
#X connect 4 0 6 0;
#X connect 4 0 33 0;
#X connect 4 1 5 1;
#X connect 5 0 2 1;
#X connect 6 0 8 0;
#X connect 7 0 10 0;
#X connect 8 0 1 0;
#X connect 10 0 13 0;
#X connect 11 0 12 0;
#X connect 12 0 18 0;
#X connect 12 0 25 0;
#X connect 13 0 11 0;
#X connect 13 1 15 0;
#X connect 14 0 26 0;
#X connect 15 0 14 0;
#X connect 18 0 38 0;
#X connect 19 0 27 0;
#X connect 22 0 37 0;
#X connect 23 0 4 0;
#X connect 28 0 29 0;
#X connect 28 0 30 0;
#X connect 30 0 31 0;
#X connect 31 0 32 0;
#X connect 32 0 0 1;
#X connect 33 0 34 0;
#X connect 34 0 35 0;
#X connect 35 0 36 0;
#X connect 36 0 2 0;
#X connect 37 0 19 0;
#X connect 38 0 19 0;
#X restore 64 215 pd touchSeq;
#X text 141 214 iterate through touches and play;
#N canvas -4 -4 1366 686 looper 0;
#X obj 156 419 tabwrite~ audio-buff;
#X msg 205 108 start;
#X msg 221 157 stop;
#X obj 232 55 tgl 35 0 empty empty toggle 5 10 0 10 -4032 -1 -1 0 1
;
#X obj 314 40 sel 1;
#X obj 312 133 timer;
#X floatatom 312 230 5 0 0 0 - - -;
#X obj 358 78 bng 25 250 50 0 empty empty empty 17 7 0 10 -258113 -1
-1;
#X obj 312 81 bng 25 250 50 0 empty empty empty 17 7 0 10 -4034 -1
-1;
#X obj 312 260 t f f;
#X obj 311 294 expr 1000 / $f1;
#X obj 311 317 phasor~;
#X obj 310 341 *~;
#X obj 339 342 * 44.1;
#N canvas 0 50 450 250 (subpatch) 0;
#X array audio-buff 661503 float 2;
#X coords 0 1 661503 -1 200 140 1 0 0;
#X restore 431 203 graph;
#X obj 450 101 bng 25 250 50 0 empty empty Clear_loop 17 7 0 28 -257985
-1 -1;
#X obj 136 90 inlet~;
#X obj 210 531 outlet~;
#X obj 231 28 inlet;
#X obj 227 383 tabread4~ audio-buff;
#X obj 459 19 receive fromGUI;
#X obj 458 41 list trim;
#X obj 458 65 route /clearBloop;
#X obj 359 175 tgl 15 0 empty empty empty 17 7 0 10 -262144 -1 -1 1
1;
#X obj 369 230 == 0;
#X obj 312 177 spigot;
#X floatatom 343 154 5 0 0 0 - - -;
#X msg 312 154 \$1;
#X obj 321 202 s page1loopsize;
#X obj 509 350 r page1loopsize;
#X obj 467 435 metro 0;
#X obj 509 371 / 32;
#X msg 464 383 stop;
#X obj 396 410 bng 15 250 50 0 empty empty empty 17 7 0 10 -262144
-1 -1;
#X obj 433 409 bng 15 250 50 0 empty empty empty 17 7 0 10 -262144
-1 -1;
#X obj 397 442 t b b;
#X obj 384 507 f;
#X obj 423 506 +;
#X floatatom 384 543 5 0 0 0 - - -;
#X obj 451 521 expr $f1 >= 32;
#X msg 438 476 1;
#X msg 347 421 0;
#X obj 450 550 tgl 15 0 empty empty empty 17 7 0 10 -262144 -1 -1 0
1;
#X obj 476 550 change;
#X floatatom 532 418 5 0 0 0 - - -;
#X obj 422 652 s toGUI;
#X msg 520 165 \; audio-buff const 0;
#X text 275 561 this garbage is for prog bar;
#X obj 459 168 bng 15 250 50 0 empty empty empty 17 7 0 10 -262144
-1 -1;
#X msg 403 165 0;
#X obj 222 483 *~;
#X obj 307 499 line;
#X obj 152 182 line~;
#X obj 132 232 *~, f 2;
#X msg 265 454 1 50;
#X msg 307 466 0 1000;
#X obj 439 144 delay 1000;
#X msg 422 626 list /loopslider \$1;
#X obj 447 595 expr $f1 / 32;
#X obj 714 375 s toGUI;
#X obj 720 304 list prepend /loopslider enable;
#X obj 720 248 tgl 15 0 empty empty empty 17 7 0 10 -262144 -1 -1 0
1;
#X msg 745 178 0;
#X obj 734 107 loadbang;
#X obj 633 244 spigot;
#X msg 160 155 1 10;
#X obj 667 150 sel 1 0;
#X obj 699 188 tgl 15 0 empty empty empty 17 7 0 10 -262144 -1 -1 1
1;
#X obj 641 206 spigot;
#X msg 757 144 1;
#X text 748 220 omfg clean your code lol never;
#X obj 402 59 loadbang;
#X msg 227 204 0 600;
#X connect 1 0 0 0;
#X connect 2 0 0 0;
#X connect 3 0 4 0;
#X connect 4 0 8 0;
#X connect 4 1 7 0;
#X connect 5 0 27 0;
#X connect 6 0 9 0;
#X connect 6 0 24 0;
#X connect 7 0 5 1;
#X connect 7 0 2 0;
#X connect 7 0 11 1;
#X connect 7 0 30 0;
#X connect 7 0 72 0;
#X connect 7 0 54 0;
#X connect 7 0 68 0;
#X connect 8 0 5 0;
#X connect 8 0 1 0;
#X connect 8 0 65 0;
#X connect 9 0 10 0;
#X connect 9 1 13 0;
#X connect 10 0 11 0;
#X connect 11 0 12 0;
#X connect 12 0 19 0;
#X connect 13 0 12 1;
#X connect 15 0 55 0;
#X connect 15 0 56 0;
#X connect 16 0 53 0;
#X connect 18 0 3 0;
#X connect 19 0 0 0;
#X connect 19 0 50 0;
#X connect 20 0 21 0;
#X connect 21 0 22 0;
#X connect 22 0 15 0;
#X connect 23 0 25 1;
#X connect 24 0 23 0;
#X connect 25 0 6 0;
#X connect 26 0 28 0;
#X connect 27 0 25 0;
#X connect 27 0 26 0;
#X connect 29 0 31 0;
#X connect 30 0 34 0;
#X connect 31 0 30 1;
#X connect 31 0 44 0;
#X connect 32 0 30 0;
#X connect 33 0 35 0;
#X connect 34 0 33 0;
#X connect 35 0 36 0;
#X connect 35 1 40 0;
#X connect 36 0 37 0;
#X connect 36 0 38 0;
#X connect 37 0 36 1;
#X connect 38 0 39 0;
#X connect 38 0 58 0;
#X connect 39 0 42 0;
#X connect 40 0 37 1;
#X connect 41 0 36 0;
#X connect 42 0 43 0;
#X connect 43 0 41 0;
#X connect 48 0 46 0;
#X connect 48 0 49 0;
#X connect 48 0 32 0;
#X connect 48 0 64 0;
#X connect 49 0 6 0;
#X connect 50 0 17 0;
#X connect 51 0 50 1;
#X connect 52 0 53 1;
#X connect 53 0 0 0;
#X connect 54 0 51 0;
#X connect 55 0 51 0;
#X connect 56 0 48 0;
#X connect 57 0 45 0;
#X connect 58 0 57 0;
#X connect 60 0 59 0;
#X connect 61 0 60 0;
#X connect 61 0 64 1;
#X connect 61 0 66 0;
#X connect 62 0 61 0;
#X connect 63 0 62 0;
#X connect 63 0 69 0;
#X connect 64 0 61 0;
#X connect 65 0 52 0;
#X connect 66 0 67 0;
#X connect 66 1 67 0;
#X connect 67 0 68 1;
#X connect 68 0 61 0;
#X connect 69 0 67 0;
#X connect 71 0 15 0;
#X connect 72 0 52 0;
#X restore 610 265 pd looper;
#X text 677 266 basic looper;
#X text 333 562 !!!!!!!!!!!!!!!!!!!!!!!!!!!!!!!!!!!!!!!!!!!!!!!!!!!!!!!!!
;
#X text 478 578 page 2;
#X obj 89 1136 hip~ 5;
#X floatatom 74 612 0 0 1500 0 - - -;
#X obj 64 688 * 441;
#X obj 59 995 +~ 1;
#X obj 89 1086 *~;
#X obj 65 832 line~;
#X obj 65 782 * 441;
#X floatatom 65 751 0 0 1500 0 - - -;
#X obj 65 807 pack 0 100;
#X obj 59 1024 +~;
#X obj 106 1022 samphold~;
#X obj 59 923 samphold~;
#X obj 59 970 *~;
#X obj 222 984 r~ phase;
#X obj 410 825 s~ phase;
#X obj 147 923 r~ phase;
#X obj 77 947 r~ phase;
#X obj 141 997 r~ phase;
#X obj 116 697 s chunk-size;
#X floatatom 412 648 0 0 0 0 - - -;
#X obj 116 672 * 0.01;
#X text 228 673 chunk size;
#X text 228 695 in seconds;
#X obj 420 702 r chunk-size;
#X obj 420 727 t b f;
#X obj 409 751 /;
#X obj 410 612 loadbang;
#X obj 222 1008 -~ 0.5;
#X obj 222 1032 *~ 0.5;
#X obj 222 1055 cos~;
#X obj 409 672 expr pow(2 \, $f1/120);
#X text 578 672 speed change;
#X obj 409 775 phasor~;
#X obj 64 725 s chunk-size-samples;
#X text 225 724 ... and in samples;
#X obj 65 854 s~ read-pt;
#X obj 106 974 r~ read-pt;
#X obj 475 808 +~ 0.5;
#X obj 475 831 wrap~;
#X obj 475 856 s~ phase2;
#X obj 59 898 r chunk-size-samples;
#X obj 296 994 +~ 1;
#X obj 270 1079 *~;
#X obj 296 1023 +~;
#X obj 351 1022 samphold~;
#X obj 296 922 samphold~;
#X obj 296 969 *~;
#X obj 461 1010 -~ 0.5;
#X obj 461 1034 *~ 0.5;
#X obj 461 1057 cos~;
#X obj 351 972 r~ read-pt;
#X obj 296 897 r chunk-size-samples;
#X obj 385 923 r~ phase2;
#X obj 314 946 r~ phase2;
#X obj 458 976 r~ phase2;
#X obj 373 997 r~ phase2;
#X obj 89 1108 +~;
#X text 447 750 loop frequency;
#X text 535 808 second phase signal;
#X text 535 828 out of phase from;
#X text 534 849 first one;
#X text 109 880 copy 1;
#X text 351 877 copy 2;
#X text 99 752 <= read point in 100ths of a second;
#X text 140 615 <= chunk size (100ths of a second);
#X text 444 647 <= transposition \, halftones/10;
#X obj 81 1315 dac~;
#X text 572 700 <= record;
#N canvas 0 0 450 300 (subpatch) 0;
#X array voice_sample_table 661503 float 0;
#X coords 0 1.02 661502 -1.02 200 130 1 0 0;
#X restore 575 1065 graph;
#X obj 38 1047 tabread4~ voice_sample_table;
#X obj 269 1048 tabread4~ voice_sample_table;
#X msg 126 595 100, f 1;
#X obj 126 573 loadbang;
#X obj 51 590 r loopSize;
#X obj 121 1315 rev3~ 97 85 1500 15;
#X floatatom 702 714 5 0 0 0 - - -;
#X obj 684 737 * 1000;
#X obj 684 800 line;
#X msg 684 779 \$1 50;
#X obj 684 654 r yTilt;
#X obj 684 758 - 300;
#X obj 186 769 r xTilt;
#X obj 228 814 r loopSize;
#X obj 186 840 *;
#X obj 684 678 expr ($f1+1)/2;
#X obj 186 816 *;
#X obj 162 793 >= 0;
#X obj 65 646 expr $f2-$f1;
#X obj 27 569 r chunk_left;
#X obj 218 793 abs;
#X obj 186 864 s chunk_left;
#X obj 218 840 *;
#X obj 324 781 s loop_freq;
#X obj 135 1279 *~;
#X obj 183 1199 list trim;
#X obj 183 1178 receive fromGUI;
#X obj 183 1220 route /myReverb;
#X obj 186 1156 line;
#X msg 186 1134 \$1 100;
#X obj 342 1180 loadbang;
#X msg 342 1222 list /myVolume \$1;
#X obj 342 1244 s toGUI;
#X obj 75 1239 *~;
#X obj 299 1225 * 100;
#X obj 585 48 r xTilt2Graph;
#X obj 585 66 r yTilt2Graph;
#X obj 501 343 +~;
#X obj 546 435 *~;
#X floatatom 562 411 5 0 0 0 - - -;
#X msg 562 379 0.95, f 3;
#X obj 562 359 loadbang;
#X obj 369 504 tabwrite~ wave-out;
#X obj 369 457 +~ 1;
#X obj 369 479 /~ 2;
#X obj 406 480 metro 32;
#N canvas 0 50 450 300 bitcrush 0;
#X obj 96 205 *~;
#X floatatom 227 148 5 0 0 0 - - -;
#X obj 96 173 expr~ round($v1 / $f2 );
#X obj 227 101 expr pow(2 \, $f1) - 1;
#X obj 227 125 expr 1 / $f1;
#X text 280 78 some bit crushing;
#X obj 227 58 + 1;
#X floatatom 72 58 5 0 0 0 - - -;
#X msg 72 78 list /bitDepth Depth: \$1;
#X obj 72 109 s toGUI;
#X obj 7 57 loadbang;
#X obj 233 15 inlet;
#X obj 95 238 outlet~;
#X obj 95 147 r~ signaltobitcrush;
#X connect 0 0 12 0;
#X connect 1 0 2 1;
#X connect 1 0 0 1;
#X connect 2 0 0 0;
#X connect 3 0 4 0;
#X connect 4 0 1 0;
#X connect 6 0 3 0;
#X connect 6 0 7 0;
#X connect 7 0 8 0;
#X connect 8 0 9 0;
#X connect 10 0 8 0;
#X connect 11 0 6 0;
#X connect 13 0 2 0;
#X restore 620 966 pd bitcrush;
#N canvas 0 0 675 678 toGui 0;
#X obj 190 180 send toGUI;
#X msg 190 159 list /PhonePos \$1 \$2;
#X obj 190 132 pack 0 0;
#X floatatom 215 93 5 0 0 0 - - -;
#X obj 192 66 expr ($f1+1)/2;
#X obj 285 67 expr ($f1+1)/2;
#X obj 192 42 r xTilt2Graph;
#X obj 285 44 r yTilt2Graph;
#X obj 328 229 r xTilt;
#X obj 192 228 r yTilt;
#X obj 328 271 s toGUI;
#X obj 192 273 s toGUI;
#X msg 328 250 list /myXtilt X: \$1;
#X msg 192 250 list /myYtilt Y: \$1;
#X obj 248 331 r loopSize;
#X msg 248 373 list /myLoopSize length: \$1;
#X obj 248 394 s toGUI;
#X obj 192 332 loadbang;
#X obj 246 419 r chunk-size;
#X msg 246 438 list /myChunkSize chunk size: \$1;
#X obj 246 457 s toGUI;
#X obj 249 526 s toGUI;
#X obj 246 596 s toGUI;
#X obj 249 477 r chunk_left;
#X obj 246 556 r loop_freq;
#X msg 249 505 list /myChunkLeft chunk left: \$1;
#X msg 246 576 list /myLoopFreq freq: \$1;
#X obj 193 479 loadbang;
#X obj 190 556 loadbang;
#X obj 190 418 loadbang;
#X text 23 332 send the recorded loop size out;
#X text 33 247 send x \, y tilt numbers;
#X text 30 70 send x \, t tilt to a graph;
#X text 14 410 output size of the selected chunk;
#X text 31 474 output size of leftover chunk;
#X text 29 546 output frequency sample is being played at;
#X obj 599 117 s toGUI;
#X msg 599 93 list /isLoading Ready!;
#X obj 599 69 r sidsampleloaded;
#X obj 599 223 s toGUI;
#X msg 599 199 list /isLoading;
#X obj 599 176 r clearsidsampletext;
#X text 602 154 clear out loading msg (sid sample);
#X text 602 38 say its ready!;
#X obj 601 370 s toGUI;
#X msg 602 350 list /isLoading LOADING;
#X text 604 297 say its loading...;
#X obj 604 321 r sidsampleloading;
#X obj 605 475 * 100;
#X msg 606 495 list /myReverbLabel Reverb: \$1 %;
#X obj 605 520 s toGUI;
#X obj 605 439 r page2reverb;
#X obj 612 633 s toGUI;
#X msg 612 611 list /myVolumeLabel Volume: \$1 %;
#X text 619 420 display the reverb level in gui;
#X text 641 548 display the volume level in gui;
#X text 814 58 |||;
#X text 824 68 |||;
#X text 834 78 |||;
#X text 844 88 |||;
#X text 854 98 |||;
#X text 864 108 |||;
#X text 874 118 |||;
#X text 884 128 |||;
#X text 894 138 |||;
#X text 904 148 |||;
#X text 914 158 |||;
#X text 924 168 |||;
#X text 934 178 |||;
#X text 807 121 |||;
#X text 817 131 |||;
#X text 827 141 |||;
#X text 837 151 |||;
#X text 847 161 |||;
#X text 857 171 |||;
#X text 867 181 |||;
#X text 877 191 |||;
#X text 887 201 |||;
#X text 897 211 |||;
#X text 907 221 |||;
#X text 917 231 |||;
#X text 927 241 |||;
#X text 801 190 |||;
#X text 811 200 |||;
#X text 821 210 |||;
#X text 831 220 |||;
#X text 841 230 |||;
#X text 851 240 |||;
#X text 861 250 |||;
#X text 871 260 |||;
#X text 881 270 |||;
#X text 893 280 |||;
#X text 901 290 |||;
#X text 911 300 |||;
#X text 921 310 |||;
#X text 810 258 |||;
#X text 820 268 |||;
#X text 830 278 |||;
#X text 840 288 |||;
#X text 850 298 |||;
#X text 860 308 |||;
#X text 870 318 |||;
#X text 880 328 |||;
#X text 890 338 |||;
#X text 900 348 |||;
#X text 910 358 |||;
#X text 920 368 |||;
#X text 930 378 |||;
#X text 821 334 |||;
#X text 831 344 |||;
#X text 841 354 |||;
#X text 851 364 |||;
#X text 861 374 |||;
#X text 871 384 |||;
#X text 881 394 |||;
#X text 891 404 |||;
#X text 901 414 |||;
#X text 911 424 |||;
#X text 921 434 |||;
#X text 931 444 |||;
#X text 941 454 |||;
#X text 828 406 |||;
#X text 838 416 |||;
#X text 848 426 |||;
#X text 858 436 |||;
#X text 868 446 |||;
#X text 878 456 |||;
#X text 888 466 |||;
#X text 898 476 |||;
#X text 908 486 |||;
#X text 918 496 |||;
#X text 928 506 |||;
#X text 938 516 |||;
#X text 948 526 |||;
#X text 825 479 |||;
#X text 835 489 |||;
#X text 845 499 |||;
#X text 855 509 |||;
#X text 865 519 |||;
#X text 875 529 |||;
#X text 885 539 |||;
#X text 895 549 |||;
#X text 905 559 |||;
#X text 915 569 |||;
#X text 925 579 |||;
#X text 935 589 |||;
#X text 945 599 |||;
#X obj 446 111 cnv 15 100 60 empty empty empty 20 12 0 14 -233017 -66577
0;
#X text 445 132 page2 stuff here;
#X obj 1021 74 array get wave-out;
#X obj 1021 101 t l;
#X obj 1021 150 send toGUI;
#X obj 1021 125 list prepend /sliderDisplay;
#X obj 1021 44 r readmetro;
#X text 1038 18 display the cool wave woooahhhhh;
#X obj 612 585 r page2volumepercent;
#X obj 604 717 s toGUI;
#X obj 604 823 s toGUI;
#X obj 601 923 s toGUI;
#X text 604 850 say its loading...;
#X msg 604 693 list /loadStatus Ready!;
#X msg 604 799 list /loadStatus;
#X msg 601 902 list /loadStatus LOADING;
#X text 607 754 clear out loading msg (main);
#X obj 604 775 r clearSample;
#X obj 604 669 r loadedSample;
#X obj 604 874 r startLoadingSample;
#X connect 1 0 0 0;
#X connect 2 0 1 0;
#X connect 4 0 2 0;
#X connect 4 0 3 0;
#X connect 5 0 2 1;
#X connect 6 0 4 0;
#X connect 7 0 5 0;
#X connect 8 0 12 0;
#X connect 9 0 13 0;
#X connect 12 0 10 0;
#X connect 13 0 11 0;
#X connect 14 0 15 0;
#X connect 15 0 16 0;
#X connect 17 0 15 0;
#X connect 18 0 19 0;
#X connect 19 0 20 0;
#X connect 23 0 25 0;
#X connect 24 0 26 0;
#X connect 25 0 21 0;
#X connect 26 0 22 0;
#X connect 27 0 25 0;
#X connect 28 0 26 0;
#X connect 29 0 19 0;
#X connect 37 0 36 0;
#X connect 38 0 37 0;
#X connect 40 0 39 0;
#X connect 41 0 40 0;
#X connect 45 0 44 0;
#X connect 47 0 45 0;
#X connect 48 0 49 0;
#X connect 49 0 50 0;
#X connect 51 0 48 0;
#X connect 53 0 52 0;
#X connect 149 0 150 0;
#X connect 150 0 152 0;
#X connect 152 0 151 0;
#X connect 153 0 149 0;
#X connect 155 0 53 0;
#X connect 160 0 156 0;
#X connect 161 0 157 0;
#X connect 162 0 158 0;
#X connect 164 0 161 0;
#X connect 165 0 160 0;
#X connect 166 0 162 0;
#X restore 983 511 pd toGui;
#N canvas 683 0 675 678 fromGui 0;
#X obj 32 79 list trim;
#X obj 32 58 receive fromGUI;
#X obj 32 100 route /PhonePos;
#X obj 32 130 unpack 0 0;
#X obj 31 156 expr ($f1*2)-1;
#X obj 87 181 expr ($f1*2)-1;
#X obj 31 193 s xTilt;
#X obj 87 203 s yTilt;
#X floatatom 145 204 5 0 0 0 - - -;
#X obj 408 168 receive fromSystem;
#X obj 408 191 list trim;
#X obj 408 212 route /tilts;
#X obj 408 233 unpack 0 0;
#X text 476 278 y tilt;
#X text 406 276 x tilt;
#X floatatom 478 234 5 0 0 0 - - -;
#X obj 370 256 s xTilt2Graph;
#X obj 455 256 s yTilt2Graph;
#X text 10 22 get the phone tilt from the graph (so it can be changed
from there);
#X text 266 139 this is the real x/y tilt from the system - prly should
change how this works...;
#X obj 407 47 list trim;
#X obj 407 22 receive fromGUI;
#X obj 407 71 route /bitcrush;
#X text 524 26 get the Bit Depth from slider;
#X obj 28 251 receive fromGUI;
#X obj 28 274 list trim;
#X obj 28 298 route /myRecToggle;
#X text 481 98 bit depth;
#X obj 408 96 s bitcrush;
#X obj 29 328 s page2looptoggle;
#X text 37 233 start stop looper page 2;
#X obj 359 346 receive fromGUI;
#X obj 359 367 list trim;
#X obj 359 392 route /clearLoop;
#X text 349 317 clear the loop for page 2;
#X obj 359 415 s page2loopclear;
#X obj 701 116 receive fromGUI;
#X obj 701 138 list trim;
#X obj 701 162 route /sidSample;
#X text 669 92 button to start loading sid sample;
#X obj 701 189 s loadSidSample;
#X obj 659 316 receive fromGUI;
#X obj 659 340 list trim;
#X obj 659 361 route /strobeToggle;
#X text 658 290 get the strobe toggle;
#X obj 659 385 s strobetoggle;
#X obj 163 368 receive fromGUI;
#X obj 163 388 list trim;
#X obj 163 411 route /myToggleonoff;
#X obj 163 442 s page1looptoggle;
#X obj 962 161 list trim;
#X obj 962 140 receive fromGUI;
#X text 1000 112 page2 volume;
#X obj 962 182 route /page2volume;
#X obj 966 225 s page2volume;
#X obj 906 362 receive fromGUI;
#X obj 906 386 list trim;
#X text 918 334 chaos toggle;
#X obj 906 407 route /chaostoggle;
#X obj 906 431 s chaostoggle;
#X obj 1221 189 r fromGUI;
#X obj 1221 210 list trim;
#X obj 1221 231 route /saveSample;
#X obj 1304 319 sel 1;
#X msg 1304 343 list /textDialog /textDialogTag Save Recording As:
;
#X obj 1304 369 send toSystem;
#X obj 1136 189 r fromSystem;
#X obj 1136 211 list trim;
#X obj 1100 252 route /textDialog /confirmationDialog;
#X obj 1209 274 route /confirmDialogTag;
#X obj 1138 322 route /textDialogTag;
#X text 1112 167 get the name of the sampled recording being saved
for page 2;
#X obj 1165 357 s page2savename;
#X obj 1256 413 s page2savebutton;
#X connect 0 0 2 0;
#X connect 1 0 0 0;
#X connect 2 0 3 0;
#X connect 3 0 4 0;
#X connect 3 1 5 0;
#X connect 4 0 6 0;
#X connect 5 0 7 0;
#X connect 5 0 8 0;
#X connect 9 0 10 0;
#X connect 10 0 11 0;
#X connect 11 0 12 0;
#X connect 12 0 16 0;
#X connect 12 1 15 0;
#X connect 15 0 17 0;
#X connect 20 0 22 0;
#X connect 21 0 20 0;
#X connect 22 0 28 0;
#X connect 24 0 25 0;
#X connect 25 0 26 0;
#X connect 26 0 29 0;
#X connect 31 0 32 0;
#X connect 32 0 33 0;
#X connect 33 0 35 0;
#X connect 36 0 37 0;
#X connect 37 0 38 0;
#X connect 38 0 40 0;
#X connect 41 0 42 0;
#X connect 42 0 43 0;
#X connect 43 0 45 0;
#X connect 46 0 47 0;
#X connect 47 0 48 0;
#X connect 48 0 49 0;
#X connect 50 0 53 0;
#X connect 51 0 50 0;
#X connect 53 0 54 0;
#X connect 55 0 56 0;
#X connect 56 0 58 0;
#X connect 58 0 59 0;
#X connect 60 0 61 0;
#X connect 61 0 62 0;
#X connect 62 0 63 0;
#X connect 63 0 64 0;
#X connect 63 0 73 0;
#X connect 64 0 65 0;
#X connect 66 0 67 0;
#X connect 67 0 68 0;
#X connect 68 0 70 0;
#X connect 68 1 69 0;
#X connect 69 0 70 0;
#X connect 70 0 72 0;
#X restore 984 538 pd fromGui;
#X obj 620 942 r bitcrush;
#X obj 48 1165 s~ signaltobitcrush;
#X obj 46 1195 r~ signalfrombitcrush;
#X obj 621 994 s~ signalfrombitcrush;
#N canvas 304 94 718 559 page2looper 0;
#X obj 147 -72 adc~ 1;
#X obj 147 -47 hip~ 5;
#X msg 198 5 start;
#X msg 200 33 stop;
#X obj 361 13 tgl 35 0 empty empty toggle 5 10 0 10 -4032 -1 -1 0 1
;
#X obj 362 55 sel 1;
#X obj 192 242 timer;
#X floatatom 232 315 14 0 0 0 - - -;
#X obj 255 35 bng 25 250 50 0 empty empty empty 17 7 0 10 -258113 -1
-1;
#X obj 256 5 bng 25 250 50 0 empty empty empty 17 7 0 10 -4034 -1 -1
;
#X obj 284 142 bng 25 250 50 0 empty empty Clear_loop 17 7 0 10 -257985
-1 -1;
#X msg 281 248 0;
#X msg 279 197 \; voice_sample_table const 0;
#X obj 148 -18 tabwrite~ voice_sample_table;
#X obj 184 347 * 0.1;
#X obj 184 377 s loopSize;
#X obj 86 117 readsf~;
#X msg 14 112 1;
#X msg 86 88 open testSid.aif;
#X obj 83 138 hip~ 5;
#X obj 57 206 tabwrite~ voice_sample_table;
#X obj 86 43 bng 20 250 50 0 empty empty empty 17 7 0 15 -13381 -1
-1;
#X obj 158 117 bng 20 250 50 0 empty empty empty 17 7 0 10 -204800
-1 -1;
#X msg 18 179 start;
#X msg 84 179 stop;
#X obj 13 87 delay 1000;
#X obj 296 112 loadbang;
#X obj 341 -18 r page2looptoggle;
#X obj 278 87 r page2loopclear;
#X obj 85 9 r loadSidSample;
#X obj 158 145 s sidsampleloaded;
#X obj 300 173 s clearsidsampletext;
#X obj 99 69 s sidsampleloading;
#X obj 327 269 r loadloopsize;
#X obj 270 364 s saveloopsize;
#X obj 426 410 list prepend /saveSample enable;
#X obj 433 375 tgl 25 0 empty empty disable_save_button_until_done
17 7 0 10 -204786 -1 -1 0 1;
#X obj 426 440 s toGUI;
#X obj 502 315 loadbang;
#X obj 387 317 != 0;
#X msg 503 349 0;
#X obj 443 159 s clearSample;
#X connect 0 0 1 0;
#X connect 1 0 13 0;
#X connect 2 0 13 0;
#X connect 3 0 13 0;
#X connect 4 0 5 0;
#X connect 5 0 9 0;
#X connect 5 1 8 0;
#X connect 6 0 7 0;
#X connect 7 0 14 0;
#X connect 7 0 34 0;
#X connect 7 0 39 0;
#X connect 8 0 6 1;
#X connect 8 0 3 0;
#X connect 9 0 6 0;
#X connect 9 0 2 0;
#X connect 9 0 10 0;
#X connect 10 0 11 0;
#X connect 10 0 12 0;
#X connect 10 0 31 0;
#X connect 10 0 41 0;
#X connect 11 0 7 0;
#X connect 14 0 15 0;
#X connect 16 0 19 0;
#X connect 16 1 22 0;
#X connect 17 0 16 0;
#X connect 18 0 16 0;
#X connect 19 0 20 0;
#X connect 21 0 18 0;
#X connect 21 0 25 0;
#X connect 21 0 32 0;
#X connect 22 0 24 0;
#X connect 22 0 6 1;
#X connect 22 0 30 0;
#X connect 23 0 20 0;
#X connect 24 0 20 0;
#X connect 25 0 17 0;
#X connect 25 0 23 0;
#X connect 25 0 6 0;
#X connect 26 0 10 0;
#X connect 27 0 4 0;
#X connect 28 0 10 0;
#X connect 29 0 21 0;
#X connect 33 0 7 0;
#X connect 35 0 37 0;
#X connect 36 0 35 0;
#X connect 38 0 40 0;
#X connect 39 0 36 0;
#X connect 40 0 36 0;
#X restore 647 1202 pd page2looper;
#X obj 184 1247 s page2reverb;
#N canvas 507 111 680 444 fmsynth 0;
#X obj 77 33 inlet;
#X obj 330 86 inlet;
#X obj 426 68 inlet;
#X obj 507 94 inlet;
#X obj 284 419 outlet~;
#X obj 286 338 osc~;
#X obj 257 238 +~, f 4;
#X floatatom 158 184 5 0 0 0 - - -;
#X obj 159 158 line 100;
#X obj 325 232 *~;
#X floatatom 366 175 5 0 0 0 - - -;
#X obj 322 200 osc~;
#X obj 507 114 + 1;
#X obj 507 135 / 2;
#X obj 366 276 *~;
#X obj 510 234 osc~;
#X floatatom 366 220 5 0 0 0 - - -;
#X obj 507 156 * 500;
#X obj 366 197 expr 500-$f1;
#X obj 314 303 +~;
#X obj 507 180 + 400;
#X text 62 12 x touch;
#X text 317 67 y touch;
#X text 418 49 x tilt;
#X text 502 72 y tilt;
#X obj 425 122 loadbang;
#X msg 425 143 0.5;
#X floatatom 387 120 5 0 0 0 - - -;
#X obj 319 261 *~;
#X obj 171 314 osc~;
#X obj 301 372 s~ selfmod;
#X obj 171 286 +~;
#X obj 193 257 r~ selfmod;
#X obj 236 373 +~;
#X obj 75 266 loadbang;
#X obj 167 353 *~;
#X floatatom 93 333 5 0 0 0 - - -;
#X msg 75 287 0.2;
#X obj 77 59 * 300;
#X obj 77 83 + 35;
#X obj 79 155 mtof;
#X obj 198 52 r chaostoggle;
#X obj 199 73 tgl 15 0 empty empty empty 17 7 0 10 -262144 -1 -1 0
1;
#X obj 139 118 spigot;
#X obj 63 120 spigot;
#X obj 231 135 tgl 15 0 empty empty empty 17 7 0 10 -262144 -1 -1 1
1;
#X obj 225 103 != 1;
#X obj 263 74 loadbang;
#X msg 263 95 0;
#X obj 324 115 * 500;
#X connect 0 0 38 0;
#X connect 1 0 49 0;
#X connect 2 0 27 0;
#X connect 3 0 12 0;
#X connect 5 0 30 0;
#X connect 5 0 33 1;
#X connect 6 0 5 0;
#X connect 6 0 19 0;
#X connect 7 0 6 0;
#X connect 7 0 31 0;
#X connect 8 0 7 0;
#X connect 9 0 28 0;
#X connect 10 0 9 1;
#X connect 10 0 18 0;
#X connect 11 0 9 0;
#X connect 12 0 13 0;
#X connect 13 0 17 0;
#X connect 14 0 19 1;
#X connect 15 0 14 0;
#X connect 16 0 14 1;
#X connect 17 0 20 0;
#X connect 18 0 16 0;
#X connect 19 0 5 0;
#X connect 20 0 15 0;
#X connect 25 0 26 0;
#X connect 26 0 27 0;
#X connect 27 0 28 1;
#X connect 28 0 6 1;
#X connect 29 0 35 1;
#X connect 31 0 29 0;
#X connect 32 0 31 1;
#X connect 33 0 4 0;
#X connect 34 0 37 0;
#X connect 35 0 33 0;
#X connect 36 0 35 0;
#X connect 37 0 36 0;
#X connect 38 0 39 0;
#X connect 39 0 44 0;
#X connect 39 0 43 0;
#X connect 40 0 8 0;
#X connect 41 0 42 0;
#X connect 42 0 44 1;
#X connect 42 0 46 0;
#X connect 43 0 8 0;
#X connect 44 0 40 0;
#X connect 45 0 43 1;
#X connect 46 0 45 0;
#X connect 47 0 48 0;
#X connect 48 0 42 0;
#X connect 49 0 10 0;
#X connect 49 0 11 0;
#X restore 509 97 pd fmsynth;
#X obj 510 127 s~ synthvoice;
#X text 611 129 output another waveform;
#X obj 406 83 r~ synthvoice;
#X text 429 59 output;
#X obj 439 525 s readmetro;
#N canvas 13 96 695 538 strober 0;
#X obj 179 185 env~;
#X floatatom 136 184 5 0 0 0 - - -;
#X obj 179 228 tgl 15 0 empty empty empty 17 7 0 10 -262144 -1 -1 0
1;
#X msg 145 470 list /flash \$1;
#X obj 145 500 send toSystem;
#X obj 147 440 tgl 15 0 empty empty empty 17 7 0 10 -262144 -1 -1 0
1;
#X obj 305 348 sel 1;
#X obj 414 214 delay;
#X floatatom 358 296 5 0 0 0 - - -;
#X obj 423 234 bng 15 250 50 0 empty empty empty 17 7 0 10 -262144
-1 -1;
#X obj 359 251 loadbang;
#X msg 360 273 900;
#X obj 323 324 spigot;
#X obj 196 295 tgl 15 0 empty empty empty 17 7 0 10 -262144 -1 -1 0
1;
#X obj 150 325 spigot;
#X obj 197 271 inlet;
#X obj 179 141 inlet~;
#X obj 179 209 > 82;
#X connect 0 0 1 0;
#X connect 0 0 17 0;
#X connect 2 0 14 0;
#X connect 3 0 4 0;
#X connect 5 0 6 0;
#X connect 5 0 12 1;
#X connect 5 0 3 0;
#X connect 6 0 7 0;
#X connect 7 0 12 0;
#X connect 8 0 7 1;
#X connect 9 0 5 0;
#X connect 10 0 11 0;
#X connect 11 0 8 0;
#X connect 12 0 9 0;
#X connect 13 0 14 1;
#X connect 14 0 5 0;
#X connect 15 0 13 0;
#X connect 16 0 0 0;
#X connect 17 0 2 0;
#X restore 698 526 pd strober;
#X obj 768 526 r strobetoggle;
#X obj 645 241 r page1looptoggle;
#X obj 406 459 loadbang;
#X obj 371 359 *~;
#X obj 387 337 r~ vol;
#X obj 370 316 r~ synthvoice;
#X obj 370 383 +~;
#X obj 213 257 loadbang;
#X msg 213 283 \; wave-out const 0.5;
#X obj 1014 149 vu 15 120 empty empty -1 -8 0 10 -66577 -1 1 0;
#X obj 910 201 env~;
#X obj 369 421 /~ 0.2;
#X obj 722 476 rev3~ 97 85 1500 15;
#X obj 696 437 *~;
#X floatatom 783 378 5 0 0 0 - - -;
#X obj 783 326 loadbang;
#X msg 785 352 0.5;
#X obj 309 1149 r page2volume;
#X obj 299 1264 s page2volumepercent;
#X obj 263 1110 loadbang;
#X msg 263 1131 1 0;
#X obj 305 1178 * 1.4;
#X obj 300 1204 / 1.4;
#X msg 342 1201 0.3;
#N canvas 362 74 675 678 savePage2 0;
#X obj 221 414 writesf~;
#X obj 120 325 tabread4~ voice_sample_table;
#X msg 358 186 stop;
#X obj 351 80 r page2savename;
#X obj 351 105 symbol;
#X msg 351 136 open saves/\$1.aiff \, start;
#X floatatom 142 197 15 0 0 0 - - -;
#X obj 143 269 phasor~;
#X obj 144 298 *~;
#X obj 171 299 * 44.1;
#X obj 143 217 t f f;
#X obj 144 246 expr 1000 / $f1;
#X msg 143 176 15000;
#X obj 64 176 delay 15000;
#X msg 73 209 0;
#X obj 136 138 bng 15 250 50 0 empty empty empty 17 7 0 10 -262144
-1 -1;
#X msg 195 176 0;
#X obj 67 235 s stopRec;
#X obj 358 162 r stopRec;
#X obj 398 426 list prepend /saveSample enable;
#X obj 405 391 tgl 25 0 empty empty disable_save_button_until_done
17 7 0 10 -204786 -1 -1 0 1;
#X obj 398 456 s toGUI;
#X obj 474 331 loadbang;
#X obj 280 147 t b;
#X obj 244 197 == 0;
#X msg 475 365 0;
#X obj 38 135 r saveloopsize;
#X connect 1 0 0 0;
#X connect 2 0 0 0;
#X connect 3 0 4 0;
#X connect 4 0 5 0;
#X connect 5 0 0 0;
#X connect 5 0 23 0;
#X connect 6 0 10 0;
#X connect 6 0 24 0;
#X connect 7 0 8 0;
#X connect 8 0 1 0;
#X connect 9 0 8 1;
#X connect 10 0 11 0;
#X connect 10 1 9 0;
#X connect 11 0 7 0;
#X connect 12 0 6 0;
#X connect 13 0 14 0;
#X connect 13 0 17 0;
#X connect 14 0 6 0;
#X connect 15 0 12 0;
#X connect 15 0 13 0;
#X connect 15 0 16 0;
#X connect 16 0 7 1;
#X connect 18 0 2 0;
#X connect 19 0 21 0;
#X connect 20 0 19 0;
#X connect 22 0 25 0;
#X connect 23 0 15 0;
#X connect 24 0 20 0;
#X connect 25 0 20 0;
#X connect 26 0 13 1;
#X restore 983 596 pd savePage2;
#X text 981 569 save and load recorded files;
#X text 913 491 all the calls to/from mobmuplat in here (if you see
more clean up!);
#N canvas 0 0 675 678 loadPage2 0;
#X obj 156 65 list trim;
#X obj 156 86 route /loadFile;
#X obj 156 44 r fromGUI;
#X obj 168 320 readsf~;
#X obj 168 369 tabwrite~ voice_sample_table;
#X msg 77 322 start;
#X msg 207 343 stop;
#X msg 168 292 open \$1;
#X obj 77 298 delay 500;
#X obj 77 256 t b;
#X obj 77 280 bng 15 250 50 0 empty empty empty 17 7 0 10 -262144 -1
-1;
#X msg 130 322 1;
#X msg 156 129 bang;
#X connect 0 0 1 0;
#X connect 1 0 12 0;
#X connect 2 0 0 0;
#X connect 3 0 4 0;
#X connect 3 1 6 0;
#X connect 5 0 4 0;
#X connect 6 0 4 0;
#X connect 7 0 3 0;
#X connect 7 0 9 0;
#X connect 8 0 5 0;
#X connect 8 0 11 0;
#X connect 9 0 10 0;
#X connect 10 0 8 0;
#X connect 11 0 3 0;
#X restore 982 628 pd loadPage2;
#X msg 1287 900 write saves/savefilelist.txt;
#X msg 1100 902 read saves/savefilelist.txt;
#X obj 1368 1221 s toGUI;
#X obj 1368 1193 list prepend /saveMenu;
#X obj 1281 558 receive fromGUI;
#X obj 1281 582 list trim;
#X obj 1281 605 route /saveMenu;
#X obj 1368 1033 text tolist file-text;
#X obj 1149 1011 text define file-text;
#X obj 1354 731 readsf~;
#X msg 1282 726 1;
#X obj 1285 782 tabwrite~ voice_sample_table;
#X msg 1241 726 start;
#X msg 1393 754 stop;
#X obj 1281 701 delay 1000;
#X obj 1267 632 bng 15 250 50 0 empty empty empty 17 7 0 10 -262144
-1 -1;
#X msg 1354 702 open \$2;
#X obj 1113 1082 text tolist file-text;
#X obj 1114 1051 r page2savebutton;
#X obj 1048 1121 list append;
#X obj 1048 1149 text fromlist file-text;
#X obj 1275 844 delay 300;
#X obj 1683 1127 text tolist file-text;
#X obj 1684 1083 bng 15 250 50 0 empty empty empty 17 7 0 10 -262144
-1 -1;
#X obj 1683 1166 print;
#X obj 1352 948 bng 15 250 50 0 empty empty empty 17 7 0 10 -262144
-1 -1;
#X obj 947 976 r page2savename;
#X obj 1100 844 loadbang;
#X obj 1363 1006 delay 300;
#X obj 1203 874 t b;
#X obj 1230 864 bng 15 250 50 0 empty empty empty 17 7 0 10 -262144
-1 -1;
#X obj 1055 995 r saveloopsize;
#X text 1688 1060 debug;
#X obj 1368 1097 list split 1;
#X obj 1452 1060 list split 1;
#X obj 1368 1160 list store;
#X obj 1025 1095 list;
#X msg 1459 1145 bang;
#X obj 1242 1269 print menuselections:;
#X obj 943 1045 makefilename saves/%s.aiff;
#X msg 1368 1126 append \$1;
#X obj 948 1013 symbol;
#X obj 1459 1121 loadbang;
#X obj 1519 1122 r page2savebutton;
#X obj 1513 673 text tolist file-text;
#X obj 1508 567 bng 15 250 50 0 empty empty empty 17 7 0 10 -262144
-1 -1;
#X obj 1506 815 route foo;
#X obj 1625 764 symbol;
#X msg 1626 736 \$2;
#X obj 1513 741 list split 2;
#X obj 1597 694 list;
#X obj 1512 781 list trim;
#X obj 1614 847 s loadloopsize;
#X obj 1536 600 s loadedSample;
#X obj 1223 659 s startLoadingSample;
#X obj 1523 906 print;
#X obj 1294 1134 delay 100;
#X obj 1253 1102 print a piece:;
#X obj 1100 872 delay 1000;
#X connect 0 0 1 0;
#X connect 1 0 8 0;
#X connect 2 0 6 0;
#X connect 4 0 3 0;
#X connect 5 0 11 0;
#X connect 6 0 5 0;
#X connect 6 1 4 0;
#X connect 8 0 2 0;
#X connect 11 0 23 0;
#X connect 13 0 135 0;
#X connect 13 0 25 0;
#X connect 13 0 170 0;
#X connect 15 0 13 1;
#X connect 19 0 153 0;
#X connect 20 0 153 1;
#X connect 23 0 17 0;
#X connect 23 1 14 0;
#X connect 23 2 18 0;
#X connect 25 0 135 1;
#X connect 25 0 166 1;
#X connect 29 0 148 0;
#X connect 30 0 116 1;
#X connect 31 0 62 0;
#X connect 32 0 38 0;
#X connect 33 0 85 0;
#X connect 34 0 64 0;
#X connect 35 0 37 0;
#X connect 36 0 35 0;
#X connect 37 0 34 0;
#X connect 38 0 98 0;
#X connect 39 0 38 1;
#X connect 40 0 41 0;
#X connect 41 0 32 0;
#X connect 42 0 56 0;
#X connect 44 0 40 1;
#X connect 45 0 41 1;
#X connect 46 0 39 1;
#X connect 48 0 59 0;
#X connect 49 0 47 0;
#X connect 52 0 53 0;
#X connect 53 0 54 0;
#X connect 53 1 54 1;
#X connect 54 0 61 0;
#X connect 54 0 121 0;
#X connect 55 0 48 0;
#X connect 56 0 57 0;
#X connect 57 0 58 0;
#X connect 58 0 33 1;
#X connect 59 0 54 0;
#X connect 61 0 43 0;
#X connect 61 0 66 0;
#X connect 65 0 39 0;
#X connect 66 0 67 0;
#X connect 67 0 68 0;
#X connect 69 0 40 0;
#X connect 70 0 72 0;
#X connect 71 0 85 1;
#X connect 72 0 99 0;
#X connect 73 0 72 1;
#X connect 74 0 75 0;
#X connect 75 0 70 0;
#X connect 76 0 77 0;
#X connect 77 0 78 0;
#X connect 78 0 71 1;
#X connect 79 0 73 0;
#X connect 80 0 74 0;
#X connect 81 0 74 1;
#X connect 82 0 75 1;
#X connect 83 0 76 0;
#X connect 84 0 73 1;
#X connect 85 0 29 0;
#X connect 98 0 33 0;
#X connect 99 0 71 0;
#X connect 100 0 30 0;
#X connect 101 0 100 0;
#X connect 102 0 30 0;
#X connect 103 0 95 0;
#X connect 103 1 95 1;
#X connect 105 0 109 0;
#X connect 106 0 48 0;
#X connect 107 0 106 0;
#X connect 108 0 113 0;
#X connect 109 0 107 0;
#X connect 110 0 118 0;
#X connect 110 0 115 0;
#X connect 110 0 114 1;
#X connect 111 0 112 1;
#X connect 111 0 120 1;
#X connect 112 0 36 0;
#X connect 113 0 104 0;
#X connect 113 0 105 0;
#X connect 114 0 112 0;
#X connect 115 0 114 0;
#X connect 116 0 31 0;
#X connect 116 0 49 0;
#X connect 117 0 116 0;
#X connect 118 0 120 0;
#X connect 120 0 119 0;
#X connect 122 0 103 0;
#X connect 123 0 125 0;
#X connect 124 0 123 0;
#X connect 125 0 122 1;
#X connect 125 0 152 0;
#X connect 126 0 131 1;
#X connect 127 0 126 0;
#X connect 128 0 183 0;
#X connect 129 0 130 0;
#X connect 131 0 122 0;
#X connect 131 0 95 1;
#X connect 131 0 95 0;
#X connect 132 0 178 0;
#X connect 133 0 153 2;
#X connect 134 0 153 3;
#X connect 135 0 136 0;
#X connect 136 0 21 0;
#X connect 136 0 173 0;
#X connect 136 0 159 0;
#X connect 137 0 136 1;
#X connect 138 0 137 0;
#X connect 139 0 138 0;
#X connect 141 0 142 0;
#X connect 142 0 140 0;
#X connect 143 0 140 0;
#X connect 143 0 158 0;
#X connect 144 0 150 0;
#X connect 147 0 144 0;
#X connect 149 0 131 0;
#X connect 153 0 154 0;
#X connect 156 0 13 0;
#X connect 160 0 159 1;
#X connect 161 0 25 1;
#X connect 162 0 143 0;
#X connect 163 0 166 0;
#X connect 164 0 163 1;
#X connect 165 0 163 0;
#X connect 166 0 171 0;
#X connect 167 0 168 0;
#X connect 170 0 169 0;
#X connect 171 0 141 0;
#X connect 172 0 21 0;
#X connect 173 0 172 0;
#X connect 174 0 173 1;
#X connect 175 0 176 0;
#X connect 176 0 174 0;
#X connect 177 0 181 0;
#X connect 179 0 180 0;
#X connect 180 0 127 0;
#X connect 181 0 127 0;
#X connect 181 0 182 0;
#X connect 182 0 132 0;
#X connect 183 0 129 0;
#X connect 188 0 196 0;
#X connect 188 0 213 0;
#X connect 189 0 196 0;
#X connect 189 0 213 0;
#X connect 191 0 190 0;
#X connect 192 0 193 0;
#X connect 193 0 194 0;
#X connect 194 0 203 0;
#X connect 194 0 204 0;
#X connect 194 0 236 0;
#X connect 195 0 221 0;
#X connect 197 0 199 0;
#X connect 197 1 201 0;
#X connect 198 0 197 0;
#X connect 200 0 199 0;
#X connect 201 0 199 0;
#X connect 201 0 233 0;
#X connect 202 0 198 0;
#X connect 202 0 200 0;
#X connect 203 0 202 0;
#X connect 203 0 242 0;
#X connect 204 0 197 0;
#X connect 205 0 207 1;
#X connect 206 0 205 0;
#X connect 207 0 208 0;
#X connect 209 0 188 0;
#X connect 210 0 212 0;
#X connect 211 0 210 0;
#X connect 213 0 216 0;
#X connect 214 0 217 0;
#X connect 214 0 229 0;
#X connect 215 0 246 0;
#X connect 216 0 195 0;
#X connect 217 0 218 0;
#X connect 218 0 209 0;
#X connect 219 0 224 1;
#X connect 221 0 228 0;
#X connect 221 0 245 0;
#X connect 221 1 222 0;
#X connect 221 2 244 0;
#X connect 222 1 221 0;
#X connect 222 2 244 0;
#X connect 223 0 226 0;
#X connect 223 0 191 0;
#X connect 224 0 207 0;
#X connect 225 0 223 1;
#X connect 227 0 224 0;
#X connect 228 0 223 0;
#X connect 229 0 227 0;
#X connect 230 0 225 0;
#X connect 231 0 225 0;
#X connect 232 0 237 0;
#X connect 233 0 232 0;
#X connect 233 0 241 0;
#X connect 234 0 240 0;
#X connect 234 0 243 0;
#X connect 235 0 234 1;
#X connect 236 0 235 0;
#X connect 237 0 239 0;
#X connect 237 1 238 0;
#X connect 238 0 237 0;
#X connect 239 0 234 0;
#X connect 244 0 223 0;
#X connect 246 0 189 0;
#X coords 0 676 1 675 85 60 0;
